M48
; DRILL file KiCad 10.0.6 date 2026-09-08T22:27:43
; FORMAT={-:-/ absolute / metric / decimal}
; #@! TF.CreationDate,2026-09-08T22:27:43-04:00
; #@! TF.GenerationSoftware,Kicad,Pcbnew,10.0.6
; #@! TF.FileFunction,Plated,1,2,PTH
FMAT,2
METRIC
; #@! TA.AperFunction,Plated,PTH,ViaDrill
T1C0.300
; #@! TA.AperFunction,Plated,PTH,ComponentDrill
T2C0.300
; #@! TA.AperFunction,Plated,PTH,ComponentDrill
T3C0.330
; #@! TA.AperFunction,Plated,PTH,ComponentDrill
T4C0.600
; #@! TA.AperFunction,Plated,PTH,ComponentDrill
T5C0.750
; #@! TA.AperFunction,Plated,PTH,ComponentDrill
T6C1.000
; #@! TA.AperFunction,Plated,PTH,ComponentDrill
T7C1.100
%
G90
G05
T1
X160.88Y-66.37
X161.45Y-72.24
X164.97Y-70.18
X167.11Y-67.95
X167.91Y-83.14
X168.59Y-65.66
X168.59Y-68.03
X168.81Y-57.15
X172.9Y-87.263
X174.42Y-89.82
X175.2Y-88.99
X175.63Y-90.0
X175.91Y-88.422
X178.98Y-86.862
X179.07Y-57.19
X179.09Y-66.87
X180.29Y-86.942
X181.55Y-84.37
X182.73Y-86.07
X182.77Y-90.36
X183.33Y-76.1
X183.67Y-77.55
X185.08Y-60.56
X185.96Y-82.88
X186.257Y-76.1
X190.77Y-78.682
X192.0Y-79.21
X192.18Y-82.86
X193.23Y-73.38
X193.28Y-78.632
X193.31Y-79.71
X193.53Y-82.89
X194.6Y-73.37
X195.01Y-69.61
T2
X173.64Y-62.04
X173.64Y-63.14
X174.19Y-61.49
X174.19Y-62.59
X174.74Y-62.04
X174.74Y-63.14
X175.29Y-61.49
X175.29Y-62.59
X175.29Y-63.69
X175.84Y-62.04
X175.84Y-63.14
T3
X174.19Y-63.69
T5
X164.22Y-86.11
X166.22Y-86.11
T6
X187.72Y-58.35
X187.72Y-60.89
X187.72Y-63.43
X187.72Y-65.97
X194.41Y-58.32
X194.41Y-60.86
X194.41Y-63.4
X194.41Y-65.94
T7
X163.88Y-73.81
X163.88Y-78.31
X170.38Y-73.81
X170.38Y-78.31
X174.25Y-73.81
X174.25Y-78.31
X180.75Y-73.81
X180.75Y-78.31
T4
G00X184.9Y-84.87
M15
G01X184.9Y-85.97
M16
G05
G00X184.9Y-89.2
M15
G01X184.9Y-90.0
M16
G05
G00X193.54Y-84.87
M15
G01X193.54Y-85.97
M16
G05
G00X193.54Y-89.2
M15
G01X193.54Y-90.0
M16
G05
M30
