G04 #@! TF.GenerationSoftware,KiCad,Pcbnew,10.0.6*
G04 #@! TF.CreationDate,2026-09-08T22:27:35-04:00*
G04 #@! TF.ProjectId,ClarinetSensor,436c6172-696e-4657-9453-656e736f722e,rev?*
G04 #@! TF.SameCoordinates,Original*
G04 #@! TF.FileFunction,Soldermask,Top*
G04 #@! TF.FilePolarity,Negative*
%FSLAX46Y46*%
G04 Gerber Fmt 4.6, Leading zero omitted, Abs format (unit mm)*
G04 Created by KiCad (PCBNEW 10.0.6) date 2026-09-08 22:27:35*
%MOMM*%
%LPD*%
G01*
G04 APERTURE LIST*
G04 Aperture macros list*
%AMRoundRect*
0 Rectangle with rounded corners*
0 $1 Rounding radius*
0 $2 $3 $4 $5 $6 $7 $8 $9 X,Y pos of 4 corners*
0 Add a 4 corners polygon primitive as box body*
4,1,4,$2,$3,$4,$5,$6,$7,$8,$9,$2,$3,0*
0 Add four circle primitives for the rounded corners*
1,1,$1+$1,$2,$3*
1,1,$1+$1,$4,$5*
1,1,$1+$1,$6,$7*
1,1,$1+$1,$8,$9*
0 Add four rect primitives between the rounded corners*
20,1,$1+$1,$2,$3,$4,$5,0*
20,1,$1+$1,$4,$5,$6,$7,0*
20,1,$1+$1,$6,$7,$8,$9,0*
20,1,$1+$1,$8,$9,$2,$3,0*%
G04 Aperture macros list end*
%ADD10C,0.650000*%
%ADD11RoundRect,0.150000X-0.150000X-0.425000X0.150000X-0.425000X0.150000X0.425000X-0.150000X0.425000X0*%
%ADD12RoundRect,0.075000X-0.075000X-0.500000X0.075000X-0.500000X0.075000X0.500000X-0.075000X0.500000X0*%
%ADD13O,1.000000X2.100000*%
%ADD14O,1.000000X1.800000*%
%ADD15C,2.000000*%
%ADD16RoundRect,0.250000X0.350000X0.450000X-0.350000X0.450000X-0.350000X-0.450000X0.350000X-0.450000X0*%
%ADD17RoundRect,0.250000X0.337500X0.475000X-0.337500X0.475000X-0.337500X-0.475000X0.337500X-0.475000X0*%
%ADD18RoundRect,0.250000X-0.337500X-0.475000X0.337500X-0.475000X0.337500X0.475000X-0.337500X0.475000X0*%
%ADD19RoundRect,0.250000X-0.350000X-0.450000X0.350000X-0.450000X0.350000X0.450000X-0.350000X0.450000X0*%
%ADD20R,1.700000X1.700000*%
%ADD21C,1.700000*%
%ADD22RoundRect,0.250000X0.475000X-0.337500X0.475000X0.337500X-0.475000X0.337500X-0.475000X-0.337500X0*%
%ADD23RoundRect,0.250000X-0.475000X0.337500X-0.475000X-0.337500X0.475000X-0.337500X0.475000X0.337500X0*%
%ADD24RoundRect,0.250000X-0.450000X0.350000X-0.450000X-0.350000X0.450000X-0.350000X0.450000X0.350000X0*%
%ADD25RoundRect,0.162500X0.617500X0.162500X-0.617500X0.162500X-0.617500X-0.162500X0.617500X-0.162500X0*%
%ADD26RoundRect,0.250000X0.450000X-0.350000X0.450000X0.350000X-0.450000X0.350000X-0.450000X-0.350000X0*%
%ADD27RoundRect,0.162500X0.162500X-0.617500X0.162500X0.617500X-0.162500X0.617500X-0.162500X-0.617500X0*%
%ADD28R,1.500000X0.900000*%
%ADD29C,0.600000*%
%ADD30R,2.900000X2.900000*%
%ADD31RoundRect,0.250000X0.325000X0.450000X-0.325000X0.450000X-0.325000X-0.450000X0.325000X-0.450000X0*%
%ADD32RoundRect,0.250000X-0.350000X-0.625000X0.350000X-0.625000X0.350000X0.625000X-0.350000X0.625000X0*%
%ADD33O,1.200000X1.750000*%
G04 APERTURE END LIST*
D10*
X186330000Y-85920000D03*
X192110000Y-85920000D03*
D11*
X186020000Y-84845000D03*
X186820000Y-84845000D03*
D12*
X187970000Y-84845000D03*
X188970000Y-84845000D03*
X189470000Y-84845000D03*
X190470000Y-84845000D03*
D11*
X191620000Y-84845000D03*
X192420000Y-84845000D03*
X192420000Y-84845000D03*
X191620000Y-84845000D03*
D12*
X190970000Y-84845000D03*
X189970000Y-84845000D03*
X188470000Y-84845000D03*
X187470000Y-84845000D03*
D11*
X186820000Y-84845000D03*
X186020000Y-84845000D03*
D13*
X184900000Y-85420000D03*
D14*
X184900000Y-89600000D03*
D13*
X193540000Y-85420000D03*
D14*
X193540000Y-89600000D03*
D15*
X174250000Y-73810000D03*
X180750000Y-73810000D03*
X174250000Y-78310000D03*
X180750000Y-78310000D03*
X159940000Y-86350000D03*
D16*
X193360000Y-81170000D03*
X191360000Y-81170000D03*
D17*
X162897500Y-58950000D03*
X160822500Y-58950000D03*
D18*
X177442500Y-88832500D03*
X179517500Y-88832500D03*
D19*
X174990000Y-70870000D03*
X176990000Y-70870000D03*
D20*
X187720000Y-65970000D03*
D21*
X187720000Y-63430000D03*
X187720000Y-60890000D03*
X187720000Y-58350000D03*
D17*
X162897500Y-56790000D03*
X160822500Y-56790000D03*
D15*
X163440000Y-81800000D03*
D22*
X178970000Y-85300000D03*
X178970000Y-83225000D03*
D23*
X193270000Y-75115000D03*
X193270000Y-77190000D03*
D15*
X193300000Y-71042500D03*
D24*
X162760000Y-63220000D03*
X162760000Y-65220000D03*
D15*
X163880000Y-73810000D03*
X170380000Y-73810000D03*
X163880000Y-78310000D03*
X170380000Y-78310000D03*
D25*
X190650000Y-75020000D03*
X190650000Y-74070000D03*
X190650000Y-73120000D03*
X187950000Y-73120000D03*
X187950000Y-75020000D03*
D22*
X162730000Y-69327500D03*
X162730000Y-67252500D03*
D18*
X188702500Y-77072500D03*
X190777500Y-77072500D03*
D26*
X172930000Y-85832500D03*
X172930000Y-83832500D03*
D16*
X168810000Y-70910000D03*
X166810000Y-70910000D03*
D27*
X174960000Y-86502500D03*
X175910000Y-86502500D03*
X176860000Y-86502500D03*
X176860000Y-83802500D03*
X174960000Y-83802500D03*
D28*
X165030000Y-56390000D03*
X165030000Y-57890000D03*
X165030000Y-59390000D03*
X165030000Y-60890000D03*
X165030000Y-62390000D03*
X165030000Y-63890000D03*
X165030000Y-65390000D03*
X165030000Y-66890000D03*
X165030000Y-68390000D03*
X182530000Y-68390000D03*
X182530000Y-66890000D03*
X182530000Y-65390000D03*
X182530000Y-63890000D03*
X182530000Y-62390000D03*
X182530000Y-60890000D03*
X182530000Y-59390000D03*
X182530000Y-57890000D03*
X182530000Y-56390000D03*
D29*
X173640000Y-62040000D03*
X173640000Y-63140000D03*
X174190000Y-61490000D03*
X174190000Y-62590000D03*
X174190000Y-63690000D03*
X174740000Y-62040000D03*
D30*
X174740000Y-62590000D03*
D29*
X174740000Y-63140000D03*
X175290000Y-61490000D03*
X175290000Y-62590000D03*
X175290000Y-63690000D03*
X175840000Y-62040000D03*
X175840000Y-63140000D03*
D31*
X172640000Y-88830000D03*
X170590000Y-88830000D03*
D26*
X170790000Y-85872500D03*
X170790000Y-83872500D03*
D20*
X194410000Y-65940000D03*
D21*
X194410000Y-63400000D03*
X194410000Y-60860000D03*
X194410000Y-58320000D03*
D15*
X159960000Y-79310000D03*
D32*
X164220000Y-86110000D03*
D33*
X166220000Y-86110000D03*
D24*
X183680000Y-79260000D03*
X183680000Y-81260000D03*
M02*
